<?xml version="1.0" encoding="UTF-8" standalone="no"?>
<!-- Generator: Adobe Illustrator 17.1.0, SVG Export Plug-In . SVG Version: 6.00 Build 0)  -->

<svg
   version="1.1"
   id="Layer_1"
   x="0px"
   y="0px"
   viewBox="0 0 91.099998 91.1"
   enable-background="new 0 0 150.5 91.1"
   xml:space="preserve"
   sodipodi:docname="logo.svg"
   width="91.099998"
   height="91.099998"
   inkscape:version="1.2 (dc2aedaf03, 2022-05-15)"
   xmlns:inkscape="http://www.inkscape.org/namespaces/inkscape"
   xmlns:sodipodi="http://sodipodi.sourceforge.net/DTD/sodipodi-0.dtd"
   xmlns="http://www.w3.org/2000/svg"
   xmlns:svg="http://www.w3.org/2000/svg"><defs
   id="defs190" /><sodipodi:namedview
   id="namedview188"
   pagecolor="#ffffff"
   bordercolor="#666666"
   borderopacity="1.0"
   inkscape:showpageshadow="2"
   inkscape:pageopacity="0.0"
   inkscape:pagecheckerboard="0"
   inkscape:deskcolor="#d1d1d1"
   showgrid="false"
   inkscape:zoom="8.1395349"
   inkscape:cx="52.091429"
   inkscape:cy="45.58"
   inkscape:window-width="1920"
   inkscape:window-height="1028"
   inkscape:window-x="0"
   inkscape:window-y="24"
   inkscape:window-maximized="1"
   inkscape:current-layer="Layer_1" />
<g
   id="g185"
   transform="translate(-40.09596)">
	<g
   id="g179">
		<g
   id="layer3_21_"
   transform="translate(-92,-63.999774)">
			<g
   id="layer5_21_">
				<g
   id="path2554_36_">
					<path
   fill="#7e4798"
   d="m 176.9,70.8 -2.4,9.6 c 3.4,-6.8 8.9,-11.9 15.2,-16.4 -4.6,5.3 -8.8,10.6 -11.3,16 4.3,-6.1 10.1,-9.4 16.6,-11.7 -8.7,7.7 -15.6,16.1 -20.8,24.4 L 170,90.9 c 0.7,-6.7 3.2,-13.5 6.9,-20.1 z"
   id="path149" />
				</g>
				<g
   id="path2536_22_">
					<path
   fill="#7e4798"
   d="m 173.7,92.3 2.9,1.5 c -0.3,1.9 0.1,6.1 2,7.1 8.4,5.2 16.2,10.8 19.3,16.5 11,19.9 -7.7,38.4 -24,36.6 8.8,-6.5 11.4,-19.9 8.1,-34.6 -1.3,-5.7 -3.4,-10.9 -7.1,-16.8 -1.6,-2.7 -1,-6.3 -1.2,-10.3 z"
   id="path152" />
				</g>
			</g>
			<g
   id="layer4_21_">
				<g
   id="path2540_22_">
					<path
   fill="#7e4798"
   d="m 170.5,101.8 c -0.6,3.1 -1.3,8.7 -4,10.8 -1.1,0.8 -2.3,1.6 -3.5,2.4 -4.9,3.3 -9.7,6.4 -11.9,14.3 -0.5,1.7 -0.1,3.5 0.3,5.2 1.2,4.9 4.6,10.1 7.3,13.2 0,0.1 0.5,0.5 0.5,0.6 2.2,2.6 2.9,3.4 11.3,5.3 l -0.2,0.9 c -5.1,-1.3 -9.2,-2.6 -11.9,-5.6 0,-0.1 -0.5,-0.5 -0.5,-0.5 -2.8,-3.2 -6.3,-8.6 -7.5,-13.7 -0.5,-2 -0.9,-3.6 -0.3,-5.7 2.3,-8.2 7.3,-11.5 12.3,-14.9 1.1,-0.7 2.5,-1.4 3.6,-2.3 2.3,-1.5 3.4,-6.2 4.5,-10 z"
   id="path156" />
				</g>
				<g
   id="path2542_22_">
					<path
   fill="#7e4798"
   d="m 172.7,114.8 c 0.1,3.5 -0.3,5.3 0.6,7.8 0.5,1.5 2.4,3.5 2.9,5.5 0.7,2.6 1.5,5.5 1.5,7.3 0,2 -0.1,5.8 -1,9.8 -0.7,3.3 -2.2,6.2 -4.8,7.8 -2.7,-0.5 -5.8,-1.5 -7.6,-3.1 -3.6,-3.1 -6.7,-8.3 -7.1,-12.8 -0.3,-3.7 3.1,-9.2 7.9,-11.9 4,-2.4 5,-5 5.9,-9.4 -1.2,3.8 -2.4,6.9 -6.3,9 -5.7,3 -8.6,7.9 -8.3,12.7 0.4,6.1 2.8,10.2 7.6,13.5 2,1.4 5.8,2.9 8.2,3.3 V 154 c 1.8,-0.3 4.1,-3.3 5.3,-7.2 1,-3.6 1.4,-8.1 1.3,-11 -0.1,-1.7 -0.8,-5.3 -2.2,-8.6 -0.7,-1.8 -1.9,-3.6 -2.6,-4.9 -0.9,-1.5 -0.9,-4.3 -1.3,-7.5 z"
   id="path159" />
				</g>
				<g
   id="path2544_22_">
					<path
   fill="#7e4798"
   d="m 172.1,128.5 c 0.1,2.4 1,5.4 1.4,8.5 0.3,2.3 0.2,4.6 0.1,6.6 -0.1,2.3 -0.8,6.5 -1.9,8.6 -1,-0.5 -1.4,-1 -2.1,-1.8 -0.8,-1.1 -1.4,-2.3 -1.9,-3.6 -0.4,-1 -0.9,-2.2 -1.1,-3.5 -0.3,-2 -0.2,-5.2 2.1,-8.4 1.8,-2.6 2.2,-2.8 2.8,-5.7 -0.8,2.6 -1.4,2.9 -3.3,5.1 -2.1,2.4 -2.4,6 -2.4,8.9 0,1.2 0.5,2.6 1,3.8 0.5,1.3 1,2.7 1.7,3.7 1.1,1.6 2.5,2.6 3.2,2.7 0,0 0,0 0,0 0,0 0,0 0,0 v -0.1 c 1.3,-1.5 2.1,-2.9 2.4,-4.4 0.3,-1.8 0.4,-3.5 0.6,-5.6 0.2,-1.8 0.1,-4.1 -0.4,-6.5 -0.6,-3 -1.7,-6.1 -2.2,-8.3 z"
   id="path162" />
				</g>
				<g
   id="path2550_22_">
					<path
   fill="#7e4798"
   d="m 172.5,99 c 0.1,3.5 0.3,10 1.3,12.6 0.3,0.9 2.8,4.7 4.5,9.4 1.2,3.2 1.5,6.2 1.7,7.1 0.8,3.8 -0.2,10.3 -1.5,16.4 -0.7,3.3 -3,7.4 -5.6,9 l -0.5,0.9 c 1.5,-0.1 5.1,-3.6 6.4,-8.1 2.2,-7.5 3,-11 2,-19.4 -0.1,-0.8 -0.5,-3.6 -1.8,-6.5 -1.9,-4.5 -4.6,-8.8 -4.9,-9.7 -0.7,-1.4 -1.5,-7.6 -1.6,-11.7 z"
   id="path165" />
				</g>
				<g
   id="path2552_22_">
					<path
   fill="#7e4798"
   d="m 173.7,92.6 c -0.2,3.6 -0.2,6.4 0.4,9.1 0.7,2.9 4.5,7.1 6.1,11.9 3,9.2 2.2,21.2 0.1,30.5 -0.8,3.3 -4.6,8.1 -8.5,9.6 l 2.8,0.7 c 1.5,-0.1 5.5,-3.8 7.1,-8 2.5,-6.7 3,-14.6 2,-23 -0.1,-0.8 -1.4,-8 -2.7,-11 -1.8,-4.5 -4.7,-7.7 -5.7,-10.5 -0.8,-2.1 -1.1,-7.7 -0.6,-8.8 z"
   id="path168" />
				</g>
			</g>
		</g>
		<g
   id="path2528_17_">
			
		</g>
		<g
   id="path2532_16_">
			
		</g>
	</g>
	<g
   id="g183">
		<path
   fill="#7e4798"
   d="m 101.7,46.3 c -2.9,-2.6 -6.5,-4.8 -10.3,-6.9 -1.7,-0.9 -6.9,-5 -5.1,-10.8 l -13.1,-5.4 -0.9,0.7 c 4.4,7.9 2.1,12.1 -0.1,13.5 -4.4,3 -10.8,6.8 -13.9,10.1 -6.1,6.3 -7.9,12.3 -7.3,20.1 0.6,10.1 7.9,18.5 17.8,21.8 4.3,1.4 8.3,1.6 12.7,1.6 7.1,0 14.5,-1.9 19.8,-6.3 5.7,-4.7 9,-11.8 9,-19.1 0,-7.3 -3.1,-14.3 -8.6,-19.3 z M 99.8,83.2 C 94.9,87.2 86.1,90 81.4,89.8 76.2,89.5 71.1,88.7 66.6,86.5 58.7,82.7 53.5,74.4 53.1,67.7 52.4,54 59,50.1 65.1,45.1 c 3.4,-2.8 8.2,-4.2 10.9,-9.2 0.5,-1.1 0.8,-3.5 0.2,-6 -0.3,-0.9 -1.5,-3.9 -2,-4.6 l 9.8,4.3 c -1.2,4.5 2.5,9.2 5.5,10.9 3,1.7 7.7,4.9 10.6,7.5 5.1,4.5 7.7,10.9 7.7,17.6 0,6.7 -2.8,13.3 -8,17.6 z"
   id="path181" />
	</g>
</g>
<g
   id="g405"
   transform="translate(-35.09596)"
   style="fill:#00d455;fill-opacity:1">
	<g
   id="g399"
   style="fill:#00d455;fill-opacity:1">
		<g
   id="g393"
   transform="translate(-92,-63.999774)"
   style="fill:#00d455;fill-opacity:1">
			<g
   id="g369"
   style="fill:#00d455;fill-opacity:1">
				<g
   id="g363"
   style="fill:#00d455;fill-opacity:1">
					<path
   fill="#7e4798"
   d="m 176.9,70.8 -2.4,9.6 c 3.4,-6.8 8.9,-11.9 15.2,-16.4 -4.6,5.3 -8.8,10.6 -11.3,16 4.3,-6.1 10.1,-9.4 16.6,-11.7 -8.7,7.7 -15.6,16.1 -20.8,24.4 L 170,90.9 c 0.7,-6.7 3.2,-13.5 6.9,-20.1 z"
   id="path361"
   style="fill:#00d455;fill-opacity:1" />
				</g>
				<g
   id="g367"
   style="fill:#00d455;fill-opacity:1">
					<path
   fill="#7e4798"
   d="m 173.7,92.3 2.9,1.5 c -0.3,1.9 0.1,6.1 2,7.1 8.4,5.2 16.2,10.8 19.3,16.5 11,19.9 -7.7,38.4 -24,36.6 8.8,-6.5 11.4,-19.9 8.1,-34.6 -1.3,-5.7 -3.4,-10.9 -7.1,-16.8 -1.6,-2.7 -1,-6.3 -1.2,-10.3 z"
   id="path365"
   style="fill:#00d455;fill-opacity:1" />
				</g>
			</g>
			<g
   id="g391"
   style="fill:#00d455;fill-opacity:1">
				<g
   id="g373"
   style="fill:#00d455;fill-opacity:1">
					<path
   fill="#7e4798"
   d="m 170.5,101.8 c -0.6,3.1 -1.3,8.7 -4,10.8 -1.1,0.8 -2.3,1.6 -3.5,2.4 -4.9,3.3 -9.7,6.4 -11.9,14.3 -0.5,1.7 -0.1,3.5 0.3,5.2 1.2,4.9 4.6,10.1 7.3,13.2 0,0.1 0.5,0.5 0.5,0.6 2.2,2.6 2.9,3.4 11.3,5.3 l -0.2,0.9 c -5.1,-1.3 -9.2,-2.6 -11.9,-5.6 0,-0.1 -0.5,-0.5 -0.5,-0.5 -2.8,-3.2 -6.3,-8.6 -7.5,-13.7 -0.5,-2 -0.9,-3.6 -0.3,-5.7 2.3,-8.2 7.3,-11.5 12.3,-14.9 1.1,-0.7 2.5,-1.4 3.6,-2.3 2.3,-1.5 3.4,-6.2 4.5,-10 z"
   id="path371"
   style="fill:#00d455;fill-opacity:1" />
				</g>
				<g
   id="g377"
   style="fill:#00d455;fill-opacity:1">
					<path
   fill="#7e4798"
   d="m 172.7,114.8 c 0.1,3.5 -0.3,5.3 0.6,7.8 0.5,1.5 2.4,3.5 2.9,5.5 0.7,2.6 1.5,5.5 1.5,7.3 0,2 -0.1,5.8 -1,9.8 -0.7,3.3 -2.2,6.2 -4.8,7.8 -2.7,-0.5 -5.8,-1.5 -7.6,-3.1 -3.6,-3.1 -6.7,-8.3 -7.1,-12.8 -0.3,-3.7 3.1,-9.2 7.9,-11.9 4,-2.4 5,-5 5.9,-9.4 -1.2,3.8 -2.4,6.9 -6.3,9 -5.7,3 -8.6,7.9 -8.3,12.7 0.4,6.1 2.8,10.2 7.6,13.5 2,1.4 5.8,2.9 8.2,3.3 V 154 c 1.8,-0.3 4.1,-3.3 5.3,-7.2 1,-3.6 1.4,-8.1 1.3,-11 -0.1,-1.7 -0.8,-5.3 -2.2,-8.6 -0.7,-1.8 -1.9,-3.6 -2.6,-4.9 -0.9,-1.5 -0.9,-4.3 -1.3,-7.5 z"
   id="path375"
   style="fill:#00d455;fill-opacity:1" />
				</g>
				<g
   id="g381"
   style="fill:#00d455;fill-opacity:1">
					<path
   fill="#7e4798"
   d="m 172.1,128.5 c 0.1,2.4 1,5.4 1.4,8.5 0.3,2.3 0.2,4.6 0.1,6.6 -0.1,2.3 -0.8,6.5 -1.9,8.6 -1,-0.5 -1.4,-1 -2.1,-1.8 -0.8,-1.1 -1.4,-2.3 -1.9,-3.6 -0.4,-1 -0.9,-2.2 -1.1,-3.5 -0.3,-2 -0.2,-5.2 2.1,-8.4 1.8,-2.6 2.2,-2.8 2.8,-5.7 -0.8,2.6 -1.4,2.9 -3.3,5.1 -2.1,2.4 -2.4,6 -2.4,8.9 0,1.2 0.5,2.6 1,3.8 0.5,1.3 1,2.7 1.7,3.7 1.1,1.6 2.5,2.6 3.2,2.7 0,0 0,0 0,0 0,0 0,0 0,0 v -0.1 c 1.3,-1.5 2.1,-2.9 2.4,-4.4 0.3,-1.8 0.4,-3.5 0.6,-5.6 0.2,-1.8 0.1,-4.1 -0.4,-6.5 -0.6,-3 -1.7,-6.1 -2.2,-8.3 z"
   id="path379"
   style="fill:#00d455;fill-opacity:1" />
				</g>
				<g
   id="g385"
   style="fill:#00d455;fill-opacity:1">
					<path
   fill="#7e4798"
   d="m 172.5,99 c 0.1,3.5 0.3,10 1.3,12.6 0.3,0.9 2.8,4.7 4.5,9.4 1.2,3.2 1.5,6.2 1.7,7.1 0.8,3.8 -0.2,10.3 -1.5,16.4 -0.7,3.3 -3,7.4 -5.6,9 l -0.5,0.9 c 1.5,-0.1 5.1,-3.6 6.4,-8.1 2.2,-7.5 3,-11 2,-19.4 -0.1,-0.8 -0.5,-3.6 -1.8,-6.5 -1.9,-4.5 -4.6,-8.8 -4.9,-9.7 -0.7,-1.4 -1.5,-7.6 -1.6,-11.7 z"
   id="path383"
   style="fill:#00d455;fill-opacity:1" />
				</g>
				<g
   id="g389"
   style="fill:#00d455;fill-opacity:1">
					<path
   fill="#7e4798"
   d="m 173.7,92.6 c -0.2,3.6 -0.2,6.4 0.4,9.1 0.7,2.9 4.5,7.1 6.1,11.9 3,9.2 2.2,21.2 0.1,30.5 -0.8,3.3 -4.6,8.1 -8.5,9.6 l 2.8,0.7 c 1.5,-0.1 5.5,-3.8 7.1,-8 2.5,-6.7 3,-14.6 2,-23 -0.1,-0.8 -1.4,-8 -2.7,-11 -1.8,-4.5 -4.7,-7.7 -5.7,-10.5 -0.8,-2.1 -1.1,-7.7 -0.6,-8.8 z"
   id="path387"
   style="fill:#00d455;fill-opacity:1" />
				</g>
			</g>
		</g>
		<g
   id="g395"
   style="fill:#00d455;fill-opacity:1">
			
		</g>
		<g
   id="g397"
   style="fill:#00d455;fill-opacity:1">
			
		</g>
	</g>
	<g
   id="g403"
   style="fill:#00d455;fill-opacity:1">
		<path
   fill="#7e4798"
   d="m 101.7,46.3 c -2.9,-2.6 -6.5,-4.8 -10.3,-6.9 -1.7,-0.9 -6.9,-5 -5.1,-10.8 l -13.1,-5.4 -0.9,0.7 c 4.4,7.9 2.1,12.1 -0.1,13.5 -4.4,3 -10.8,6.8 -13.9,10.1 -6.1,6.3 -7.9,12.3 -7.3,20.1 0.6,10.1 7.9,18.5 17.8,21.8 4.3,1.4 8.3,1.6 12.7,1.6 7.1,0 14.5,-1.9 19.8,-6.3 5.7,-4.7 9,-11.8 9,-19.1 0,-7.3 -3.1,-14.3 -8.6,-19.3 z M 99.8,83.2 C 94.9,87.2 86.1,90 81.4,89.8 76.2,89.5 71.1,88.7 66.6,86.5 58.7,82.7 53.5,74.4 53.1,67.7 52.4,54 59,50.1 65.1,45.1 c 3.4,-2.8 8.2,-4.2 10.9,-9.2 0.5,-1.1 0.8,-3.5 0.2,-6 -0.3,-0.9 -1.5,-3.9 -2,-4.6 l 9.8,4.3 c -1.2,4.5 2.5,9.2 5.5,10.9 3,1.7 7.7,4.9 10.6,7.5 5.1,4.5 7.7,10.9 7.7,17.6 0,6.7 -2.8,13.3 -8,17.6 z"
   id="path401"
   style="fill:#00d455;fill-opacity:1" />
	</g>
</g><g
   id="g451"
   transform="translate(-30.09596)">
	<g
   id="g445">
		<g
   id="g439"
   transform="translate(-92,-63.999774)">
			<g
   id="g415">
				<g
   id="g409">
					<path
   fill="#7e4798"
   d="m 176.9,70.8 -2.4,9.6 c 3.4,-6.8 8.9,-11.9 15.2,-16.4 -4.6,5.3 -8.8,10.6 -11.3,16 4.3,-6.1 10.1,-9.4 16.6,-11.7 -8.7,7.7 -15.6,16.1 -20.8,24.4 L 170,90.9 c 0.7,-6.7 3.2,-13.5 6.9,-20.1 z"
   id="path407" />
				</g>
				<g
   id="g413">
					<path
   fill="#7e4798"
   d="m 173.7,92.3 2.9,1.5 c -0.3,1.9 0.1,6.1 2,7.1 8.4,5.2 16.2,10.8 19.3,16.5 11,19.9 -7.7,38.4 -24,36.6 8.8,-6.5 11.4,-19.9 8.1,-34.6 -1.3,-5.7 -3.4,-10.9 -7.1,-16.8 -1.6,-2.7 -1,-6.3 -1.2,-10.3 z"
   id="path411" />
				</g>
			</g>
			<g
   id="g437">
				<g
   id="g419">
					<path
   fill="#7e4798"
   d="m 170.5,101.8 c -0.6,3.1 -1.3,8.7 -4,10.8 -1.1,0.8 -2.3,1.6 -3.5,2.4 -4.9,3.3 -9.7,6.4 -11.9,14.3 -0.5,1.7 -0.1,3.5 0.3,5.2 1.2,4.9 4.6,10.1 7.3,13.2 0,0.1 0.5,0.5 0.5,0.6 2.2,2.6 2.9,3.4 11.3,5.3 l -0.2,0.9 c -5.1,-1.3 -9.2,-2.6 -11.9,-5.6 0,-0.1 -0.5,-0.5 -0.5,-0.5 -2.8,-3.2 -6.3,-8.6 -7.5,-13.7 -0.5,-2 -0.9,-3.6 -0.3,-5.7 2.3,-8.2 7.3,-11.5 12.3,-14.9 1.1,-0.7 2.5,-1.4 3.6,-2.3 2.3,-1.5 3.4,-6.2 4.5,-10 z"
   id="path417" />
				</g>
				<g
   id="g423">
					<path
   fill="#7e4798"
   d="m 172.7,114.8 c 0.1,3.5 -0.3,5.3 0.6,7.8 0.5,1.5 2.4,3.5 2.9,5.5 0.7,2.6 1.5,5.5 1.5,7.3 0,2 -0.1,5.8 -1,9.8 -0.7,3.3 -2.2,6.2 -4.8,7.8 -2.7,-0.5 -5.8,-1.5 -7.6,-3.1 -3.6,-3.1 -6.7,-8.3 -7.1,-12.8 -0.3,-3.7 3.1,-9.2 7.9,-11.9 4,-2.4 5,-5 5.9,-9.4 -1.2,3.8 -2.4,6.9 -6.3,9 -5.7,3 -8.6,7.9 -8.3,12.7 0.4,6.1 2.8,10.2 7.6,13.5 2,1.4 5.8,2.9 8.2,3.3 V 154 c 1.8,-0.3 4.1,-3.3 5.3,-7.2 1,-3.6 1.4,-8.1 1.3,-11 -0.1,-1.7 -0.8,-5.3 -2.2,-8.6 -0.7,-1.8 -1.9,-3.6 -2.6,-4.9 -0.9,-1.5 -0.9,-4.3 -1.3,-7.5 z"
   id="path421" />
				</g>
				<g
   id="g427">
					<path
   fill="#7e4798"
   d="m 172.1,128.5 c 0.1,2.4 1,5.4 1.4,8.5 0.3,2.3 0.2,4.6 0.1,6.6 -0.1,2.3 -0.8,6.5 -1.9,8.6 -1,-0.5 -1.4,-1 -2.1,-1.8 -0.8,-1.1 -1.4,-2.3 -1.9,-3.6 -0.4,-1 -0.9,-2.2 -1.1,-3.5 -0.3,-2 -0.2,-5.2 2.1,-8.4 1.8,-2.6 2.2,-2.8 2.8,-5.7 -0.8,2.6 -1.4,2.9 -3.3,5.1 -2.1,2.4 -2.4,6 -2.4,8.9 0,1.2 0.5,2.6 1,3.8 0.5,1.3 1,2.7 1.7,3.7 1.1,1.6 2.5,2.6 3.2,2.7 0,0 0,0 0,0 0,0 0,0 0,0 v -0.1 c 1.3,-1.5 2.1,-2.9 2.4,-4.4 0.3,-1.8 0.4,-3.5 0.6,-5.6 0.2,-1.8 0.1,-4.1 -0.4,-6.5 -0.6,-3 -1.7,-6.1 -2.2,-8.3 z"
   id="path425" />
				</g>
				<g
   id="g431">
					<path
   fill="#7e4798"
   d="m 172.5,99 c 0.1,3.5 0.3,10 1.3,12.6 0.3,0.9 2.8,4.7 4.5,9.4 1.2,3.2 1.5,6.2 1.7,7.1 0.8,3.8 -0.2,10.3 -1.5,16.4 -0.7,3.3 -3,7.4 -5.6,9 l -0.5,0.9 c 1.5,-0.1 5.1,-3.6 6.4,-8.1 2.2,-7.5 3,-11 2,-19.4 -0.1,-0.8 -0.5,-3.6 -1.8,-6.5 -1.9,-4.5 -4.6,-8.8 -4.9,-9.7 -0.7,-1.4 -1.5,-7.6 -1.6,-11.7 z"
   id="path429" />
				</g>
				<g
   id="g435">
					<path
   fill="#7e4798"
   d="m 173.7,92.6 c -0.2,3.6 -0.2,6.4 0.4,9.1 0.7,2.9 4.5,7.1 6.1,11.9 3,9.2 2.2,21.2 0.1,30.5 -0.8,3.3 -4.6,8.1 -8.5,9.6 l 2.8,0.7 c 1.5,-0.1 5.5,-3.8 7.1,-8 2.5,-6.7 3,-14.6 2,-23 -0.1,-0.8 -1.4,-8 -2.7,-11 -1.8,-4.5 -4.7,-7.7 -5.7,-10.5 -0.8,-2.1 -1.1,-7.7 -0.6,-8.8 z"
   id="path433" />
				</g>
			</g>
		</g>
		<g
   id="g441">
			
		</g>
		<g
   id="g443">
			
		</g>
	</g>
	<g
   id="g449">
		<path
   fill="#7e4798"
   d="m 101.7,46.3 c -2.9,-2.6 -6.5,-4.8 -10.3,-6.9 -1.7,-0.9 -6.9,-5 -5.1,-10.8 l -13.1,-5.4 -0.9,0.7 c 4.4,7.9 2.1,12.1 -0.1,13.5 -4.4,3 -10.8,6.8 -13.9,10.1 -6.1,6.3 -7.9,12.3 -7.3,20.1 0.6,10.1 7.9,18.5 17.8,21.8 4.3,1.4 8.3,1.6 12.7,1.6 7.1,0 14.5,-1.9 19.8,-6.3 5.7,-4.7 9,-11.8 9,-19.1 0,-7.3 -3.1,-14.3 -8.6,-19.3 z M 99.8,83.2 C 94.9,87.2 86.1,90 81.4,89.8 76.2,89.5 71.1,88.7 66.6,86.5 58.7,82.7 53.5,74.4 53.1,67.7 52.4,54 59,50.1 65.1,45.1 c 3.4,-2.8 8.2,-4.2 10.9,-9.2 0.5,-1.1 0.8,-3.5 0.2,-6 -0.3,-0.9 -1.5,-3.9 -2,-4.6 l 9.8,4.3 c -1.2,4.5 2.5,9.2 5.5,10.9 3,1.7 7.7,4.9 10.6,7.5 5.1,4.5 7.7,10.9 7.7,17.6 0,6.7 -2.8,13.3 -8,17.6 z"
   id="path447" />
	</g>
</g></svg>
